<?xml version="1.0" encoding="iso-8859-1"?>
<!-- Generator: Adobe Illustrator 19.0.0, SVG Export Plug-In . SVG Version: 6.00 Build 0)  -->
<svg version="1.1" id="Layer_1" xmlns="http://www.w3.org/2000/svg" xmlns:xlink="http://www.w3.org/1999/xlink" x="0px" y="0px"
	 viewBox="0 0 512 512" style="enable-background:new 0 0 512 512;" xml:space="preserve">
<path style="fill:#45CCFF;" d="M501.53,293.471c1.169,58.485-47.258,105.984-105.754,105.984H83.573
	c-39.496,0-72.551-31.336-73.116-70.828c-0.015-1.047-0.011-2.099,0.01-3.156c0.965-46.39,38.633-84.52,85.009-86.044
	c17.494-0.575,33.87,3.97,47.795,12.226c-0.4-4.045-0.601-8.13-0.601-12.275c0-70.046,56.789-126.835,126.835-126.835
	c53.366,0,99.042,32.98,117.764,79.678c3.424-0.341,6.888-0.521,10.393-0.521C454.327,191.701,500.403,237.078,501.53,293.471z"/>
<g>
	<path style="fill:#231F20;" d="M511.977,293.262L511.977,293.262c-0.601-30.049-12.759-58.205-34.235-79.282
		c-21.507-21.106-49.945-32.729-80.078-32.729c-1.238,0-2.485,0.021-3.737,0.063c-10.333-22.14-26.331-41.062-46.617-55.046
		c-22.943-15.815-49.847-24.173-77.803-24.173c-74.207,0-134.85,59.187-137.213,132.83c-11.812-4.326-24.407-6.356-37.16-5.94
		c-25.113,0.827-48.774,11.231-66.623,29.298c-17.85,18.066-27.968,41.851-28.491,66.974c-0.024,1.178-0.027,2.351-0.011,3.521
		c0.638,44.734,38.124,81.128,83.564,81.128h312.203c31.272,0,61.755-12.8,83.632-35.12
		C501.021,352.736,512.587,323.784,511.977,293.262z M491.083,293.681c0.497,24.86-8.95,48.469-26.6,66.475
		c-17.972,18.335-43.015,28.851-68.707,28.851H83.573c-34.079,0-62.191-27.153-62.668-60.526c-0.014-0.927-0.01-1.857,0.009-2.791
		c0.857-41.162,33.76-74.466,74.906-75.819c0.863-0.028,1.724-0.043,2.585-0.043c13.951,0,27.57,3.717,39.536,10.814
		c3.39,2.009,7.619,1.942,10.943-0.174c3.323-2.116,5.173-5.921,4.785-9.843c-0.365-3.683-0.55-7.468-0.55-11.246
		c0-64.176,52.21-116.386,116.386-116.386c47.839,0,90.257,28.7,108.065,73.117c1.73,4.316,6.108,6.965,10.733,6.509
		c3.131-0.311,6.279-0.469,9.358-0.469C448.166,202.15,490.074,243.211,491.083,293.681L491.083,293.681z"/>
	<path style="fill:#231F20;" d="M399.973,276.736l-51.301-43.861c-4.388-3.75-10.983-3.234-14.732,1.151
		c-3.75,4.386-3.235,10.982,1.151,14.732l42.012,35.918l-42.012,35.918c-4.386,3.75-4.902,10.346-1.151,14.732
		c2.067,2.417,4.998,3.659,7.946,3.658c2.401,0,4.816-0.823,6.786-2.507l51.301-43.86c2.322-1.984,3.658-4.887,3.658-7.942
		S402.294,278.721,399.973,276.736z"/>
	<path style="fill:#231F20;" d="M238.114,234.028c-3.75-4.386-10.346-4.904-14.732-1.151l-51.301,43.861
		c-2.322,1.985-3.658,4.887-3.658,7.942s1.336,5.957,3.658,7.942l51.301,43.86c1.97,1.683,4.383,2.507,6.786,2.507
		c2.949,0,5.881-1.241,7.946-3.658c3.75-4.386,3.235-10.982-1.151-14.732l-42.012-35.918l42.012-35.918
		C241.348,245.01,241.864,238.413,238.114,234.028z"/>
	<path style="fill:#231F20;" d="M308.55,215.506c-5.486-1.788-11.385,1.207-13.174,6.693l-0.165,0.505
		c-1.79,5.486,1.207,11.385,6.693,13.174c1.076,0.351,2.169,0.518,3.243,0.518c4.4,0,8.493-2.801,9.932-7.211l0.165-0.505
		C317.034,223.194,314.037,217.295,308.55,215.506z"/>
	<path style="fill:#231F20;" d="M295.432,255.785c-5.487-1.789-11.384,1.214-13.17,6.702l-25.455,78.196
		c-1.786,5.487,1.214,11.384,6.702,13.17c1.074,0.35,2.164,0.516,3.236,0.516c4.402,0,8.497-2.804,9.934-7.218l25.455-78.196
		C303.919,263.467,300.919,257.571,295.432,255.785z"/>
</g>
<g>
</g>
<g>
</g>
<g>
</g>
<g>
</g>
<g>
</g>
<g>
</g>
<g>
</g>
<g>
</g>
<g>
</g>
<g>
</g>
<g>
</g>
<g>
</g>
<g>
</g>
<g>
</g>
<g>
</g>
</svg>
